0
SECTION
2
HEADER
0
ENDSEC
0
SECTION
2
TABLES
0
TABLE
2
LAYER
70
6
0
LAYER
2
0
70
0
62
7
6
CONTINUOUS
0
LAYER
2
TEXT
70
0
62
5
6
CONTINUOUS
0
LAYER
2
NAMES
70
0
62
3
6
CONTINUOUS
0
LAYER
2
NUMBERS
70
0
62
1
6
CONTINUOUS
0
LAYER
2
ROTATION
70
0
62
2
6
CONTINUOUS
0
LAYER
2
SIZES
70
0
62
6
6
CONTINUOUS
0
ENDTAB
0
ENDSEC
0
SECTION
2
ENTITIES
0
POLYLINE
8
0
66
1
70
1
10
0
20
0
30
0
0
VERTEX
8
0
10
0
20
0
30
0
0
VERTEX
8
0
10
1000
20
0
30
0
0
VERTEX
8
0
10
1000
20
2000
30
0
0
VERTEX
8
0
10
0
20
2000
30
0
0
VERTEX
8
0
10
0
20
0
30
0
0
SEQEND
0
TEXT
8
TEXT
62
5
10
500
20
2110
30
0
40
50
1
\U+041B\U+0418\U+0421\U+0422 1
72
1
73
2
11
500
21
2110
31
0
0
TEXT
8
TEXT
62
5
10
500
20
2040
30
0
40
50
1
1000x2000
72
1
73
2
11
500
21
2040
31
0
0
POLYLINE
8
0
66
1
70
1
10
0
20
0
30
0
0
VERTEX
8
0
10
10
20
10
30
0
0
VERTEX
8
0
10
610
20
10
30
0
0
VERTEX
8
0
10
610
20
710
30
0
0
VERTEX
8
0
10
10
20
710
30
0
0
VERTEX
8
0
10
10
20
10
30
0
0
SEQEND
0
TEXT
8
NUMBERS
62
1
10
25
20
695
30
0
40
30
1
4
72
1
73
2
11
25
21
695
31
0
0
TEXT
8
SIZES
62
6
10
310
20
360
30
0
40
20
1
600x700
72
1
73
2
11
310
21
360
31
0
0
POLYLINE
8
0
66
1
70
1
10
0
20
0
30
0
0
VERTEX
8
0
10
10
20
713
30
0
0
VERTEX
8
0
10
610
20
713
30
0
0
VERTEX
8
0
10
610
20
1413
30
0
0
VERTEX
8
0
10
10
20
1413
30
0
0
VERTEX
8
0
10
10
20
713
30
0
0
SEQEND
0
TEXT
8
NUMBERS
62
1
10
25
20
1398
30
0
40
30
1
4
72
1
73
2
11
25
21
1398
31
0
0
TEXT
8
SIZES
62
6
10
310
20
1063
30
0
40
20
1
600x700
72
1
73
2
11
310
21
1063
31
0
0
POLYLINE
8
0
66
1
70
1
10
0
20
0
30
0
0
VERTEX
8
0
10
613
20
10
30
0
0
VERTEX
8
0
10
913
20
10
30
0
0
VERTEX
8
0
10
913
20
410
30
0
0
VERTEX
8
0
10
613
20
410
30
0
0
VERTEX
8
0
10
613
20
10
30
0
0
SEQEND
0
TEXT
8
NUMBERS
62
1
10
628
20
395
30
0
40
30
1
1
72
1
73
2
11
628
21
395
31
0
0
TEXT
8
SIZES
62
6
10
763
20
210
30
0
40
20
1
300x400
72
1
73
2
11
763
21
210
31
0
0
POLYLINE
8
0
66
1
70
1
10
0
20
0
30
0
0
VERTEX
8
0
10
613
20
713
30
0
0
VERTEX
8
0
10
913
20
713
30
0
0
VERTEX
8
0
10
913
20
1113
30
0
0
VERTEX
8
0
10
613
20
1113
30
0
0
VERTEX
8
0
10
613
20
713
30
0
0
SEQEND
0
TEXT
8
NUMBERS
62
1
10
628
20
1098
30
0
40
30
1
3
72
1
73
2
11
628
21
1098
31
0
0
TEXT
8
ROTATION
62
2
10
898
20
728
30
0
40
20
1
R
72
1
73
2
11
898
21
728
31
0
0
TEXT
8
SIZES
62
6
10
763
20
913
30
0
40
20
1
400x300
72
1
73
2
11
763
21
913
31
0
0
TEXT
8
NAMES
62
3
10
763
20
948
30
0
40
20
1
\U+0412\U+0435\U+0440\U+0445
72
1
73
2
11
763
21
948
31
0
0
POLYLINE
8
0
66
1
70
1
10
0
20
0
30
0
0
VERTEX
8
0
10
10
20
1416
30
0
0
VERTEX
8
0
10
310
20
1416
30
0
0
VERTEX
8
0
10
310
20
1816
30
0
0
VERTEX
8
0
10
10
20
1816
30
0
0
VERTEX
8
0
10
10
20
1416
30
0
0
SEQEND
0
TEXT
8
NUMBERS
62
1
10
25
20
1801
30
0
40
30
1
1
72
1
73
2
11
25
21
1801
31
0
0
TEXT
8
SIZES
62
6
10
160
20
1616
30
0
40
20
1
300x400
72
1
73
2
11
160
21
1616
31
0
0
POLYLINE
8
0
66
1
70
1
10
0
20
0
30
0
0
VERTEX
8
0
10
313
20
1416
30
0
0
VERTEX
8
0
10
613
20
1416
30
0
0
VERTEX
8
0
10
613
20
1816
30
0
0
VERTEX
8
0
10
313
20
1816
30
0
0
VERTEX
8
0
10
313
20
1416
30
0
0
SEQEND
0
TEXT
8
NUMBERS
62
1
10
328
20
1801
30
0
40
30
1
1
72
1
73
2
11
328
21
1801
31
0
0
TEXT
8
SIZES
62
6
10
463
20
1616
30
0
40
20
1
300x400
72
1
73
2
11
463
21
1616
31
0
0
POLYLINE
8
0
66
1
70
1
10
0
20
0
30
0
0
VERTEX
8
0
10
616
20
1416
30
0
0
VERTEX
8
0
10
916
20
1416
30
0
0
VERTEX
8
0
10
916
20
1816
30
0
0
VERTEX
8
0
10
616
20
1816
30
0
0
VERTEX
8
0
10
616
20
1416
30
0
0
SEQEND
0
TEXT
8
NUMBERS
62
1
10
631
20
1801
30
0
40
30
1
1
72
1
73
2
11
631
21
1801
31
0
0
TEXT
8
SIZES
62
6
10
766
20
1616
30
0
40
20
1
300x400
72
1
73
2
11
766
21
1616
31
0
0
POLYLINE
8
0
66
1
70
1
10
0
20
0
30
0
0
VERTEX
8
0
10
1200
20
0
30
0
0
VERTEX
8
0
10
2200
20
0
30
0
0
VERTEX
8
0
10
2200
20
2000
30
0
0
VERTEX
8
0
10
1200
20
2000
30
0
0
VERTEX
8
0
10
1200
20
0
30
0
0
SEQEND
0
TEXT
8
TEXT
62
5
10
1700
20
2110
30
0
40
50
1
\U+041B\U+0418\U+0421\U+0422 2
72
1
73
2
11
1700
21
2110
31
0
0
TEXT
8
TEXT
62
5
10
1700
20
2040
30
0
40
50
1
1000x2000
72
1
73
2
11
1700
21
2040
31
0
0
POLYLINE
8
0
66
1
70
1
10
0
20
0
30
0
0
VERTEX
8
0
10
1210
20
10
30
0
0
VERTEX
8
0
10
1510
20
10
30
0
0
VERTEX
8
0
10
1510
20
410
30
0
0
VERTEX
8
0
10
1210
20
410
30
0
0
VERTEX
8
0
10
1210
20
10
30
0
0
SEQEND
0
TEXT
8
NUMBERS
62
1
10
1225
20
395
30
0
40
30
1
1
72
1
73
2
11
1225
21
395
31
0
0
TEXT
8
SIZES
62
6
10
1360
20
210
30
0
40
20
1
300x400
72
1
73
2
11
1360
21
210
31
0
0
POLYLINE
8
0
66
1
70
1
10
0
20
0
30
0
0
VERTEX
8
0
10
1513
20
10
30
0
0
VERTEX
8
0
10
1813
20
10
30
0
0
VERTEX
8
0
10
1813
20
410
30
0
0
VERTEX
8
0
10
1513
20
410
30
0
0
VERTEX
8
0
10
1513
20
10
30
0
0
SEQEND
0
TEXT
8
NUMBERS
62
1
10
1528
20
395
30
0
40
30
1
1
72
1
73
2
11
1528
21
395
31
0
0
TEXT
8
SIZES
62
6
10
1663
20
210
30
0
40
20
1
300x400
72
1
73
2
11
1663
21
210
31
0
0
POLYLINE
8
0
66
1
70
1
10
0
20
0
30
0
0
VERTEX
8
0
10
1210
20
413
30
0
0
VERTEX
8
0
10
1510
20
413
30
0
0
VERTEX
8
0
10
1510
20
813
30
0
0
VERTEX
8
0
10
1210
20
813
30
0
0
VERTEX
8
0
10
1210
20
413
30
0
0
SEQEND
0
TEXT
8
NUMBERS
62
1
10
1225
20
798
30
0
40
30
1
1
72
1
73
2
11
1225
21
798
31
0
0
TEXT
8
SIZES
62
6
10
1360
20
613
30
0
40
20
1
300x400
72
1
73
2
11
1360
21
613
31
0
0
POLYLINE
8
0
66
1
70
1
10
0
20
0
30
0
0
VERTEX
8
0
10
1816
20
10
30
0
0
VERTEX
8
0
10
2116
20
10
30
0
0
VERTEX
8
0
10
2116
20
410
30
0
0
VERTEX
8
0
10
1816
20
410
30
0
0
VERTEX
8
0
10
1816
20
10
30
0
0
SEQEND
0
TEXT
8
NUMBERS
62
1
10
1831
20
395
30
0
40
30
1
1
72
1
73
2
11
1831
21
395
31
0
0
TEXT
8
SIZES
62
6
10
1966
20
210
30
0
40
20
1
300x400
72
1
73
2
11
1966
21
210
31
0
0
POLYLINE
8
0
66
1
70
1
10
0
20
0
30
0
0
VERTEX
8
0
10
1513
20
413
30
0
0
VERTEX
8
0
10
1813
20
413
30
0
0
VERTEX
8
0
10
1813
20
813
30
0
0
VERTEX
8
0
10
1513
20
813
30
0
0
VERTEX
8
0
10
1513
20
413
30
0
0
SEQEND
0
TEXT
8
NUMBERS
62
1
10
1528
20
798
30
0
40
30
1
1
72
1
73
2
11
1528
21
798
31
0
0
TEXT
8
SIZES
62
6
10
1663
20
613
30
0
40
20
1
300x400
72
1
73
2
11
1663
21
613
31
0
0
POLYLINE
8
0
66
1
70
1
10
0
20
0
30
0
0
VERTEX
8
0
10
1210
20
816
30
0
0
VERTEX
8
0
10
1510
20
816
30
0
0
VERTEX
8
0
10
1510
20
1216
30
0
0
VERTEX
8
0
10
1210
20
1216
30
0
0
VERTEX
8
0
10
1210
20
816
30
0
0
SEQEND
0
TEXT
8
NUMBERS
62
1
10
1225
20
1201
30
0
40
30
1
1
72
1
73
2
11
1225
21
1201
31
0
0
TEXT
8
SIZES
62
6
10
1360
20
1016
30
0
40
20
1
300x400
72
1
73
2
11
1360
21
1016
31
0
0
POLYLINE
8
0
66
1
70
1
10
0
20
0
30
0
0
VERTEX
8
0
10
1816
20
413
30
0
0
VERTEX
8
0
10
2116
20
413
30
0
0
VERTEX
8
0
10
2116
20
813
30
0
0
VERTEX
8
0
10
1816
20
813
30
0
0
VERTEX
8
0
10
1816
20
413
30
0
0
SEQEND
0
TEXT
8
NUMBERS
62
1
10
1831
20
798
30
0
40
30
1
1
72
1
73
2
11
1831
21
798
31
0
0
TEXT
8
SIZES
62
6
10
1966
20
613
30
0
40
20
1
300x400
72
1
73
2
11
1966
21
613
31
0
0
POLYLINE
8
0
66
1
70
1
10
0
20
0
30
0
0
VERTEX
8
0
10
1513
20
816
30
0
0
VERTEX
8
0
10
1813
20
816
30
0
0
VERTEX
8
0
10
1813
20
1216
30
0
0
VERTEX
8
0
10
1513
20
1216
30
0
0
VERTEX
8
0
10
1513
20
816
30
0
0
SEQEND
0
TEXT
8
NUMBERS
62
1
10
1528
20
1201
30
0
40
30
1
1
72
1
73
2
11
1528
21
1201
31
0
0
TEXT
8
SIZES
62
6
10
1663
20
1016
30
0
40
20
1
300x400
72
1
73
2
11
1663
21
1016
31
0
0
POLYLINE
8
0
66
1
70
1
10
0
20
0
30
0
0
VERTEX
8
0
10
1210
20
1219
30
0
0
VERTEX
8
0
10
1510
20
1219
30
0
0
VERTEX
8
0
10
1510
20
1619
30
0
0
VERTEX
8
0
10
1210
20
1619
30
0
0
VERTEX
8
0
10
1210
20
1219
30
0
0
SEQEND
0
TEXT
8
NUMBERS
62
1
10
1225
20
1604
30
0
40
30
1
1
72
1
73
2
11
1225
21
1604
31
0
0
TEXT
8
SIZES
62
6
10
1360
20
1419
30
0
40
20
1
300x400
72
1
73
2
11
1360
21
1419
31
0
0
POLYLINE
8
0
66
1
70
1
10
0
20
0
30
0
0
VERTEX
8
0
10
1816
20
816
30
0
0
VERTEX
8
0
10
2116
20
816
30
0
0
VERTEX
8
0
10
2116
20
1216
30
0
0
VERTEX
8
0
10
1816
20
1216
30
0
0
VERTEX
8
0
10
1816
20
816
30
0
0
SEQEND
0
TEXT
8
NUMBERS
62
1
10
1831
20
1201
30
0
40
30
1
1
72
1
73
2
11
1831
21
1201
31
0
0
TEXT
8
SIZES
62
6
10
1966
20
1016
30
0
40
20
1
300x400
72
1
73
2
11
1966
21
1016
31
0
0
POLYLINE
8
0
66
1
70
1
10
0
20
0
30
0
0
VERTEX
8
0
10
1513
20
1219
30
0
0
VERTEX
8
0
10
1813
20
1219
30
0
0
VERTEX
8
0
10
1813
20
1619
30
0
0
VERTEX
8
0
10
1513
20
1619
30
0
0
VERTEX
8
0
10
1513
20
1219
30
0
0
SEQEND
0
TEXT
8
NUMBERS
62
1
10
1528
20
1604
30
0
40
30
1
1
72
1
73
2
11
1528
21
1604
31
0
0
TEXT
8
SIZES
62
6
10
1663
20
1419
30
0
40
20
1
300x400
72
1
73
2
11
1663
21
1419
31
0
0
POLYLINE
8
0
66
1
70
1
10
0
20
0
30
0
0
VERTEX
8
0
10
1210
20
1622
30
0
0
VERTEX
8
0
10
1610
20
1622
30
0
0
VERTEX
8
0
10
1610
20
1922
30
0
0
VERTEX
8
0
10
1210
20
1922
30
0
0
VERTEX
8
0
10
1210
20
1622
30
0
0
SEQEND
0
TEXT
8
NUMBERS
62
1
10
1225
20
1907
30
0
40
30
1
1
72
1
73
2
11
1225
21
1907
31
0
0
TEXT
8
ROTATION
62
2
10
1595
20
1637
30
0
40
20
1
R
72
1
73
2
11
1595
21
1637
31
0
0
TEXT
8
SIZES
62
6
10
1410
20
1772
30
0
40
20
1
300x400
72
1
73
2
11
1410
21
1772
31
0
0
POLYLINE
8
0
66
1
70
1
10
0
20
0
30
0
0
VERTEX
8
0
10
1816
20
1219
30
0
0
VERTEX
8
0
10
2116
20
1219
30
0
0
VERTEX
8
0
10
2116
20
1619
30
0
0
VERTEX
8
0
10
1816
20
1619
30
0
0
VERTEX
8
0
10
1816
20
1219
30
0
0
SEQEND
0
TEXT
8
NUMBERS
62
1
10
1831
20
1604
30
0
40
30
1
1
72
1
73
2
11
1831
21
1604
31
0
0
TEXT
8
SIZES
62
6
10
1966
20
1419
30
0
40
20
1
300x400
72
1
73
2
11
1966
21
1419
31
0
0
POLYLINE
8
0
66
1
70
1
10
0
20
0
30
0
0
VERTEX
8
0
10
1613
20
1622
30
0
0
VERTEX
8
0
10
2013
20
1622
30
0
0
VERTEX
8
0
10
2013
20
1922
30
0
0
VERTEX
8
0
10
1613
20
1922
30
0
0
VERTEX
8
0
10
1613
20
1622
30
0
0
SEQEND
0
TEXT
8
NUMBERS
62
1
10
1628
20
1907
30
0
40
30
1
1
72
1
73
2
11
1628
21
1907
31
0
0
TEXT
8
ROTATION
62
2
10
1998
20
1637
30
0
40
20
1
R
72
1
73
2
11
1998
21
1637
31
0
0
TEXT
8
SIZES
62
6
10
1813
20
1772
30
0
40
20
1
300x400
72
1
73
2
11
1813
21
1772
31
0
0
POLYLINE
8
0
66
1
70
1
10
0
20
0
30
0
0
VERTEX
8
0
10
2400
20
0
30
0
0
VERTEX
8
0
10
3400
20
0
30
0
0
VERTEX
8
0
10
3400
20
2000
30
0
0
VERTEX
8
0
10
2400
20
2000
30
0
0
VERTEX
8
0
10
2400
20
0
30
0
0
SEQEND
0
TEXT
8
TEXT
62
5
10
2900
20
2110
30
0
40
50
1
\U+041B\U+0418\U+0421\U+0422 3
72
1
73
2
11
2900
21
2110
31
0
0
TEXT
8
TEXT
62
5
10
2900
20
2040
30
0
40
50
1
1000x2000
72
1
73
2
11
2900
21
2040
31
0
0
POLYLINE
8
0
66
1
70
1
10
0
20
0
30
0
0
VERTEX
8
0
10
2410
20
10
30
0
0
VERTEX
8
0
10
2710
20
10
30
0
0
VERTEX
8
0
10
2710
20
410
30
0
0
VERTEX
8
0
10
2410
20
410
30
0
0
VERTEX
8
0
10
2410
20
10
30
0
0
SEQEND
0
TEXT
8
NUMBERS
62
1
10
2425
20
395
30
0
40
30
1
1
72
1
73
2
11
2425
21
395
31
0
0
TEXT
8
SIZES
62
6
10
2560
20
210
30
0
40
20
1
300x400
72
1
73
2
11
2560
21
210
31
0
0
POLYLINE
8
0
66
1
70
1
10
0
20
0
30
0
0
VERTEX
8
0
10
2713
20
10
30
0
0
VERTEX
8
0
10
3013
20
10
30
0
0
VERTEX
8
0
10
3013
20
410
30
0
0
VERTEX
8
0
10
2713
20
410
30
0
0
VERTEX
8
0
10
2713
20
10
30
0
0
SEQEND
0
TEXT
8
NUMBERS
62
1
10
2728
20
395
30
0
40
30
1
1
72
1
73
2
11
2728
21
395
31
0
0
TEXT
8
SIZES
62
6
10
2863
20
210
30
0
40
20
1
300x400
72
1
73
2
11
2863
21
210
31
0
0
POLYLINE
8
0
66
1
70
1
10
0
20
0
30
0
0
VERTEX
8
0
10
2410
20
413
30
0
0
VERTEX
8
0
10
2610
20
413
30
0
0
VERTEX
8
0
10
2610
20
913
30
0
0
VERTEX
8
0
10
2410
20
913
30
0
0
VERTEX
8
0
10
2410
20
413
30
0
0
SEQEND
0
TEXT
8
NUMBERS
62
1
10
2425
20
898
30
0
40
28.000000000000004
1
2
72
1
73
2
11
2425
21
898
31
0
0
TEXT
8
SIZES
62
6
10
2510
20
663
30
0
40
18
1
200x500
72
1
73
2
11
2510
21
663
31
0
0
TEXT
8
NAMES
62
3
10
2510
20
698
30
0
40
16
1
\U+041D\U+0438\U+0437
72
1
73
2
11
2510
21
698
31
0
0
POLYLINE
8
0
66
1
70
1
10
0
20
0
30
0
0
VERTEX
8
0
10
2613
20
413
30
0
0
VERTEX
8
0
10
2813
20
413
30
0
0
VERTEX
8
0
10
2813
20
913
30
0
0
VERTEX
8
0
10
2613
20
913
30
0
0
VERTEX
8
0
10
2613
20
413
30
0
0
SEQEND
0
TEXT
8
NUMBERS
62
1
10
2628
20
898
30
0
40
28.000000000000004
1
2
72
1
73
2
11
2628
21
898
31
0
0
TEXT
8
SIZES
62
6
10
2713
20
663
30
0
40
18
1
200x500
72
1
73
2
11
2713
21
663
31
0
0
TEXT
8
NAMES
62
3
10
2713
20
698
30
0
40
16
1
\U+041D\U+0438\U+0437
72
1
73
2
11
2713
21
698
31
0
0
POLYLINE
8
0
66
1
70
1
10
0
20
0
30
0
0
VERTEX
8
0
10
2410
20
916
30
0
0
VERTEX
8
0
10
2610
20
916
30
0
0
VERTEX
8
0
10
2610
20
1416
30
0
0
VERTEX
8
0
10
2410
20
1416
30
0
0
VERTEX
8
0
10
2410
20
916
30
0
0
SEQEND
0
TEXT
8
NUMBERS
62
1
10
2425
20
1401
30
0
40
28.000000000000004
1
2
72
1
73
2
11
2425
21
1401
31
0
0
TEXT
8
SIZES
62
6
10
2510
20
1166
30
0
40
18
1
200x500
72
1
73
2
11
2510
21
1166
31
0
0
TEXT
8
NAMES
62
3
10
2510
20
1201
30
0
40
16
1
\U+041D\U+0438\U+0437
72
1
73
2
11
2510
21
1201
31
0
0
ENDSEC
0
EOF
