<svg width="190" height="190" viewBox="0 0 190 190" fill="none" xmlns="http://www.w3.org/2000/svg">
<g filter="url(#filter0_d_4_22)">
<rect x="10" y="9" width="170" height="170" rx="40" fill="#FEFEFE"/>
</g>
<path d="M122.633 80.9463C123.278 80.9463 123.911 81.123 124.463 81.457L143.406 92.9277C146.399 94.7396 148.226 97.9833 148.227 101.481V122.876C148.227 123.526 148.075 124.168 147.784 124.75C147.436 125.446 146.902 126.03 146.24 126.439L98.1855 156.155C97.2922 156.708 96.2623 157 95.2119 157C94.1907 157 93.1882 156.723 92.3115 156.199L57.9893 135.689C56.0447 134.527 56.0405 131.712 57.9814 130.544L80.8535 116.782C81.8283 116.196 83.051 116.211 84.0107 116.821L91.709 121.721C92.6596 122.326 93.763 122.646 94.8896 122.646C95.9913 122.646 97.0711 122.34 98.0078 121.76L115.786 110.754C116.566 110.271 117.041 109.419 117.041 108.502C117.041 107.6 116.581 106.759 115.821 106.272L102.145 97.5049C100.262 96.298 100.315 93.5297 102.241 92.3945L120.84 81.4346C121.383 81.1145 122.002 80.9463 122.633 80.9463ZM95.0146 31C96.0359 31 97.0384 31.2769 97.915 31.8008L132.237 52.3105C134.182 53.4727 134.186 56.2881 132.245 57.4561L109.373 71.2178C108.398 71.8041 107.176 71.7885 106.216 71.1777L98.5176 66.2793C97.567 65.6745 96.4636 65.3535 95.3369 65.3535C94.2352 65.3535 93.1555 65.6604 92.2188 66.2402L74.4404 77.2461C73.6605 77.7289 73.1855 78.5808 73.1855 79.498C73.1856 80.4004 73.6456 81.2406 74.4053 81.7275L88.082 90.4951C89.9643 91.702 89.9119 94.4703 87.9854 95.6055L69.3867 106.564C68.8435 106.885 68.2242 107.054 67.5938 107.054C66.9488 107.054 66.3154 106.877 65.7637 106.543L46.8203 95.0723C43.828 93.2604 42.0001 90.0166 42 86.5186V65.124C42 64.4735 42.1515 63.8318 42.4424 63.25C42.7903 62.5543 43.3247 61.9687 43.9863 61.5596L92.041 31.8447C92.9344 31.2923 93.9643 31 95.0146 31Z" fill="url(#paint0_linear_4_22)" fill-opacity="0.9"/>
<defs>
<filter id="filter0_d_4_22" x="0" y="0" width="190" height="190" filterUnits="userSpaceOnUse" color-interpolation-filters="sRGB">
<feFlood flood-opacity="0" result="BackgroundImageFix"/>
<feColorMatrix in="SourceAlpha" type="matrix" values="0 0 0 0 0 0 0 0 0 0 0 0 0 0 0 0 0 0 127 0" result="hardAlpha"/>
<feOffset dy="1"/>
<feGaussianBlur stdDeviation="5"/>
<feComposite in2="hardAlpha" operator="out"/>
<feColorMatrix type="matrix" values="0 0 0 0 0 0 0 0 0 0 0 0 0 0 0 0 0 0 0.05 0"/>
<feBlend mode="normal" in2="BackgroundImageFix" result="effect1_dropShadow_4_22"/>
<feBlend mode="normal" in="SourceGraphic" in2="effect1_dropShadow_4_22" result="shape"/>
</filter>
<linearGradient id="paint0_linear_4_22" x1="111.193" y1="157.244" x2="110.463" y2="87.8063" gradientUnits="userSpaceOnUse">
<stop stop-color="#0140F8"/>
<stop offset="1" stop-color="#0000BB"/>
</linearGradient>
</defs>
</svg>
